<svg xmlns="http://www.w3.org/2000/svg" xmlns:xlink="http://www.w3.org/1999/xlink" width="95.192" height="179.322" viewBox="0 0 95.192 179.322"><defs><clipPath id="a"><path d="M0-46H95.192V-225.319H0Z" transform="translate(0 225.319)" fill="none"/></clipPath></defs><g transform="translate(0 225.32)"><g transform="translate(0 -225.32)"><path d="M0,0V63.007H25.151V94.64H53.672v33.707H94.64V63.007H63.266V31.374H31.374V0Z" fill="#fff"/></g><g transform="translate(0 -225.319)" clip-path="url(#a)"><g transform="translate(0.472 131.825)"><path d="M-.152-1.079V-3.838l2.873,3V-5.019H2.126v2.738L-.747-5.287v4.208Zm6.575,0h.651L5.193-5.266,3.243-1.079h.641l.439-.957H6.01ZM4.571-2.595l.612-1.34.584,1.34ZM7.415-5.019v2.536A1.417,1.417,0,0,0,7.8-1.457a1.425,1.425,0,0,0,1.069.45,1.436,1.436,0,0,0,1.072-.45,1.417,1.417,0,0,0,.388-1.025V-5.019H9.738v2.372a1.283,1.283,0,0,1-.166.743.814.814,0,0,1-.7.34.81.81,0,0,1-.7-.34,1.3,1.3,0,0,1-.166-.743V-5.019Zm4.455,0h-.595v3.939h.595V-2.71l.123-.123,1.419,1.753h.8L12.417-3.235,14.2-5.019H13.4L11.87-3.447Zm3.116,3.483a2.032,2.032,0,0,0,1.37.528A2.033,2.033,0,0,0,17.829-1.6a1.94,1.94,0,0,0,.607-1.442,1.969,1.969,0,0,0-.6-1.447,1.97,1.97,0,0,0-1.444-.6,2.008,2.008,0,0,0-1.46.6,1.932,1.932,0,0,0-.61,1.429,1.936,1.936,0,0,0,.669,1.531m.355-2.57a1.4,1.4,0,0,1,1.039-.428,1.388,1.388,0,0,1,1.035.428,1.444,1.444,0,0,1,.421,1.057,1.45,1.45,0,0,1-.426,1.056,1.419,1.419,0,0,1-1.047.429,1.412,1.412,0,0,1-1.008-.421,1.424,1.424,0,0,1-.439-1.074,1.422,1.422,0,0,1,.423-1.047m3.222-.913L20.237-.827,21.294-3.62,22.307-.829l1.76-4.189h-.645l-1.09,2.633L21.307-5.211,20.235-2.386,19.209-5.019Zm6.287,3.483a2.032,2.032,0,0,0,1.37.528A2.033,2.033,0,0,0,27.694-1.6,1.937,1.937,0,0,0,28.3-3.044a1.969,1.969,0,0,0-.6-1.447,1.97,1.97,0,0,0-1.444-.6,2.008,2.008,0,0,0-1.46.6,1.932,1.932,0,0,0-.61,1.429,1.936,1.936,0,0,0,.669,1.531m.355-2.57a1.4,1.4,0,0,1,1.039-.428,1.388,1.388,0,0,1,1.035.428A1.444,1.444,0,0,1,27.7-3.049a1.45,1.45,0,0,1-.426,1.056,1.419,1.419,0,0,1-1.047.429,1.412,1.412,0,0,1-1.008-.421,1.424,1.424,0,0,1-.439-1.074,1.422,1.422,0,0,1,.423-1.047m3.37,2.014h1.138v-.5H28.576Zm3.784-2.926H30.186v3.939h2.174v-.559h-1.58V-2.955h1.534v-.559H30.781V-4.46h1.58Zm1.6,3.939a3.043,3.043,0,0,0,.926-.11,1.854,1.854,0,0,0,.669-.39,1.869,1.869,0,0,0,.635-1.47,1.884,1.884,0,0,0-.61-1.462,1.753,1.753,0,0,0-.671-.391,3.02,3.02,0,0,0-.939-.117h-.827v3.939ZM33.736-4.46H34a1.644,1.644,0,0,1,1.151.36,1.37,1.37,0,0,1,.434,1.051,1.346,1.346,0,0,1-.439,1.043,1.34,1.34,0,0,1-.48.283A2.22,2.22,0,0,1,34-1.638h-.268Zm3.2-.559v2.536a1.417,1.417,0,0,0,.388,1.025,1.425,1.425,0,0,0,1.069.45,1.436,1.436,0,0,0,1.072-.45,1.417,1.417,0,0,0,.388-1.025V-5.019h-.595v2.372a1.283,1.283,0,0,1-.166.743.814.814,0,0,1-.7.34.81.81,0,0,1-.7-.34,1.3,1.3,0,0,1-.166-.743V-5.019Zm4.455,0h-.6v3.939h.6V-2.71l.122-.123,1.419,1.753h.8L41.937-3.235l1.781-1.784h-.794L41.391-3.447Zm5.6,3.939h.65L45.756-5.266,43.807-1.079h.64l.439-.957h1.686ZM45.134-2.595l.612-1.34.585,1.34Zm4.7-2.5a1.981,1.981,0,0,0-1.585.722,2.026,2.026,0,0,0-.5,1.342A1.954,1.954,0,0,0,48.344-1.6a1.977,1.977,0,0,0,1.442.59A2.142,2.142,0,0,0,50.857-1.3v-.716a2.8,2.8,0,0,1-.277.209,1.525,1.525,0,0,1-.254.138,1.262,1.262,0,0,1-.533.1,1.381,1.381,0,0,1-1.025-.427,1.434,1.434,0,0,1-.419-1.046A1.471,1.471,0,0,1,48.768-4.1a1.357,1.357,0,0,1,1.023-.436,1.648,1.648,0,0,1,1.066.431v-.7A2.005,2.005,0,0,0,49.831-5.1M52.4-1.079H53v-1.7L54.29-5.019h-.684l-.9,1.574-.9-1.574h-.684L52.4-2.782Zm2.942-3.939V-2.47a1.63,1.63,0,0,1-.107.7.375.375,0,0,1-.367.2.738.738,0,0,1-.406-.146l-.291.508a1.333,1.333,0,0,0,.7.194.992.992,0,0,0,.791-.349,1.028,1.028,0,0,0,.216-.431,2.7,2.7,0,0,0,.064-.681V-5.019Zm2.136,3.939V-3.838l2.873,3V-5.019H59.76v2.738L56.887-5.287v4.208Zm6.575,0h.65L62.827-5.266,60.878-1.079h.641l.439-.957h1.686ZM62.2-2.595l.613-1.34.584,1.34Z" transform="translate(0.747 5.287)" fill="#fff"/></g><g transform="translate(0.472 126.628)"><path d="M-.5-.069H-2.472V3.871h.595V2H-.553V1.437H-1.877V.49H-.5Zm.689,0V2.468A1.428,1.428,0,0,0,1.641,3.942a1.437,1.437,0,0,0,1.072-.449A1.42,1.42,0,0,0,3.1,2.468V-.069H2.506V2.3a1.283,1.283,0,0,1-.166.743.815.815,0,0,1-.7.339.812.812,0,0,1-.7-.339A1.307,1.307,0,0,1,.779,2.3V-.069ZM4.64,3.871V1.112l2.873,3V-.069H6.918V2.669L4.045-.337V3.871Zm4.633,0a3.043,3.043,0,0,0,.926-.11,1.843,1.843,0,0,0,.669-.39A1.868,1.868,0,0,0,11.5,1.9a1.884,1.884,0,0,0-.61-1.462,1.763,1.763,0,0,0-.671-.391,3.02,3.02,0,0,0-.939-.117H8.457V3.871ZM9.051.49h.268A1.644,1.644,0,0,1,10.47.85,1.37,1.37,0,0,1,10.9,1.9a1.354,1.354,0,0,1-.918,1.327,2.229,2.229,0,0,1-.666.084H9.051Zm5.733,3.381h.651L13.555-.316l-1.95,4.187h.641l.439-.957h1.686ZM12.933,2.355l.612-1.339.584,1.339Zm4.7-2.5a1.981,1.981,0,0,0-1.585.722,2.023,2.023,0,0,0-.5,1.343,1.953,1.953,0,0,0,.595,1.433,1.976,1.976,0,0,0,1.441.59,2.15,2.15,0,0,0,1.072-.288V2.937a3.17,3.17,0,0,1-.277.209,1.577,1.577,0,0,1-.254.138,1.265,1.265,0,0,1-.533.1,1.382,1.382,0,0,1-1.026-.426,1.438,1.438,0,0,1-.419-1.047A1.474,1.474,0,0,1,16.566.852,1.36,1.36,0,0,1,17.589.416a1.649,1.649,0,0,1,1.066.431v-.7A2.015,2.015,0,0,0,17.63-.145m2.378.076V2.48a1.645,1.645,0,0,1-.107.7.376.376,0,0,1-.368.2.74.74,0,0,1-.406-.146l-.29.508a1.328,1.328,0,0,0,.7.194.989.989,0,0,0,.791-.349,1.023,1.023,0,0,0,.216-.431,2.657,2.657,0,0,0,.064-.681V-.069Zm4.134,3.939h.651L22.912-.316l-1.95,4.187H21.6l.439-.957h1.686ZM22.289,2.355,22.9,1.016l.584,1.339Z" transform="translate(2.472 0.337)" fill="#fff"/></g><g transform="translate(0.731 167.479)"><path d="M-.926-.13a3.255,3.255,0,0,0-2.243.8,2.518,2.518,0,0,0-.9,1.971q0,1.748,2.148,2.656l1.009.42a4.474,4.474,0,0,1,.677.356,2.109,2.109,0,0,1,.465.4,1.446,1.446,0,0,1,.264.467A1.782,1.782,0,0,1,.578,7.5,1.709,1.709,0,0,1,.09,8.752a1.652,1.652,0,0,1-1.226.494A1.643,1.643,0,0,1-2.56,8.569,2.714,2.714,0,0,1-2.938,7.3l-1.6.353a3.714,3.714,0,0,0,1.091,2.27,3.216,3.216,0,0,0,2.249.806,3.3,3.3,0,0,0,2.406-.949A3.2,3.2,0,0,0,2.17,7.391a2.831,2.831,0,0,0-.59-1.819A4.449,4.449,0,0,0-.283,4.315l-1.043-.427Q-2.465,3.42-2.464,2.654a1.156,1.156,0,0,1,.433-.922A1.615,1.615,0,0,1-.94,1.36a1.6,1.6,0,0,1,.874.216,2.2,2.2,0,0,1,.684.813L1.9,1.631A3.132,3.132,0,0,0-.926-.13M9.555,1.557V.073H3.172V1.557H5.578v8.977H7.156V1.557Zm2.33,7.764a5.529,5.529,0,0,0,7.548-.176,5.143,5.143,0,0,0,1.612-3.828A5.226,5.226,0,0,0,19.44,1.476a5.23,5.23,0,0,0-3.835-1.6A5.327,5.327,0,0,0,11.73,1.462a5.122,5.122,0,0,0-1.62,3.794,5.14,5.14,0,0,0,1.775,4.065M12.828,2.5A3.728,3.728,0,0,1,15.585,1.36,3.692,3.692,0,0,1,18.336,2.5,3.836,3.836,0,0,1,19.454,5.3a3.853,3.853,0,0,1-1.132,2.8,3.861,3.861,0,0,1-5.454.021A3.783,3.783,0,0,1,11.7,5.277,3.775,3.775,0,0,1,12.828,2.5M26.121-.13a3.254,3.254,0,0,0-2.243.8,2.519,2.519,0,0,0-.9,1.971q0,1.748,2.148,2.656l1.01.42a4.473,4.473,0,0,1,.677.356,2.1,2.1,0,0,1,.464.4,1.432,1.432,0,0,1,.264.467,1.76,1.76,0,0,1,.084.559,1.712,1.712,0,0,1-.487,1.253,1.8,1.8,0,0,1-2.649-.183,2.722,2.722,0,0,1-.38-1.274l-1.6.353A3.714,3.714,0,0,0,23.6,9.917a3.214,3.214,0,0,0,2.249.806,3.3,3.3,0,0,0,2.405-.949,3.2,3.2,0,0,0,.962-2.384,2.831,2.831,0,0,0-.59-1.819,4.444,4.444,0,0,0-1.863-1.257L25.72,3.887q-1.138-.467-1.138-1.233a1.157,1.157,0,0,1,.434-.922,1.821,1.821,0,0,1,1.965-.156,2.209,2.209,0,0,1,.684.813l1.281-.759A3.132,3.132,0,0,0,26.121-.13m6.253,9.452a5.529,5.529,0,0,0,7.548-.176,5.143,5.143,0,0,0,1.612-3.828,5.227,5.227,0,0,0-1.606-3.842,5.227,5.227,0,0,0-3.834-1.6,5.331,5.331,0,0,0-3.876,1.585A5.124,5.124,0,0,0,30.6,5.256a5.14,5.14,0,0,0,1.775,4.065M33.316,2.5a3.9,3.9,0,0,1,5.508,0A3.835,3.835,0,0,1,39.942,5.3a3.855,3.855,0,0,1-1.131,2.8,3.861,3.861,0,0,1-5.454.021,3.781,3.781,0,0,1-1.166-2.852A3.772,3.772,0,0,1,33.316,2.5M41.873.073l4.444,11.132,2.805-7.419,2.69,7.412L56.487.073H54.773L51.88,7.065l-2.724-7.5-2.845,7.5L43.587.073Zm22.27,10.462h1.728L60.877-.584,55.7,10.534h1.7l1.165-2.541h4.478ZM59.224,6.51,60.85,2.952,62.4,6.51Zm9.533,4.025V3.21l7.629,7.961V.073H74.807v7.27L67.178-.638V10.534ZM84.665.073H78.893V10.534h5.772V9.05H80.471v-3.5h4.072V4.07H80.471V1.557h4.194Zm3.672,0V6.841a4.329,4.329,0,0,1-.285,1.87,1,1,0,0,1-.975.535A1.964,1.964,0,0,1,86,8.861l-.773,1.348a3.545,3.545,0,0,0,1.85.515,2.626,2.626,0,0,0,2.1-.928,2.724,2.724,0,0,0,.575-1.145,7.124,7.124,0,0,0,.17-1.809V.073Z" transform="translate(4.538 0.638)" fill="#fff"/></g><g transform="translate(1.254 153.68)"><path d="M-1.481-.183H-7.253V10.278h5.772V8.795H-5.675V5.3H-1.6V3.815H-5.675V1.3h4.194ZM2.172,10.278V2.955L9.8,10.916V-.183H8.222v7.27L.593-.894V10.278ZM18.08-.183H12.307V10.278H18.08V8.795H13.886V5.3h4.072V3.815H13.886V1.3H18.08Zm7.3,4.98a2.969,2.969,0,0,0,.637-1.911A2.862,2.862,0,0,0,25,.6,4.617,4.617,0,0,0,22-.183h-1.85V10.278h1.578V6h.285L25,10.278h1.931L23.7,5.821A2.839,2.839,0,0,0,25.376,4.8M21.731,1.3h.563q2.181,0,2.181,1.606,0,1.714-2.243,1.714h-.5ZM33.649,6.315h2.608a2.8,2.8,0,0,1-1.036,1.9A3.157,3.157,0,0,1,33.127,9a3.738,3.738,0,0,1-2.54-1.05,3.708,3.708,0,0,1-1.253-2.879A3.824,3.824,0,0,1,30.458,2.25a3.747,3.747,0,0,1,2.785-1.144A3.82,3.82,0,0,1,36.38,2.819L37.5,1.742a6.6,6.6,0,0,0-2-1.626,5.5,5.5,0,0,0-6.165,1.09,5.247,5.247,0,0,0-1.592,3.862,5.255,5.255,0,0,0,1.565,3.821,5.1,5.1,0,0,0,3.76,1.585,4.738,4.738,0,0,0,3.706-1.639,4.435,4.435,0,0,0,.914-1.572,7.131,7.131,0,0,0,.278-2.087V4.831H33.649Zm12.08-6.5H39.957V10.278h5.772V8.795H41.535V5.3h4.072V3.815H41.535V1.3h4.194ZM53.087,1.3V-.183H46.705V1.3H49.11v8.977h1.578V1.3Zm4.2,8.977h1.579V5.759L62.294-.183H60.479L58.08,4,55.689-.183H53.873l3.414,5.942ZM65.079-.183H63.5V10.278h1.578V5.949l.326-.325,3.767,4.654h2.114L66.529,4.554,71.258-.183H69.151L65.079,3.991Zm7.616,10.461h1.579V-.183H72.695Z" transform="translate(7.253 0.894)" fill="#fff"/></g><g transform="translate(1.253 139.936)"><path d="M-.593-1.762A3.807,3.807,0,0,0,2-2.6a2.868,2.868,0,0,0,.961-2.276,2.974,2.974,0,0,0-.9-2.222A2.666,2.666,0,0,0,.871-7.792a8.081,8.081,0,0,0-1.986-.183H-2.9V2.486h1.579V-1.762Zm-.731-4.756H-.8Q1.44-6.518,1.44-4.9q0,1.674-2.175,1.674h-.589ZM5.843,1.273a5.4,5.4,0,0,0,3.639,1.4A5.4,5.4,0,0,0,13.391,1.1,5.143,5.143,0,0,0,15-2.731,5.226,5.226,0,0,0,13.4-6.572a5.23,5.23,0,0,0-3.835-1.6A5.329,5.329,0,0,0,5.688-6.586a5.122,5.122,0,0,0-1.62,3.794A5.14,5.14,0,0,0,5.843,1.273M6.786-5.55A3.728,3.728,0,0,1,9.543-6.688a3.692,3.692,0,0,1,2.75,1.138,3.836,3.836,0,0,1,1.118,2.805A3.853,3.853,0,0,1,12.28.06,3.763,3.763,0,0,1,9.5,1.2,3.74,3.74,0,0,1,6.826.081,3.783,3.783,0,0,1,5.661-2.771,3.775,3.775,0,0,1,6.786-5.55M22.213-2.995a2.971,2.971,0,0,0,.637-1.911A2.865,2.865,0,0,0,21.834-7.2a4.626,4.626,0,0,0-2.995-.779h-1.85V2.486h1.578V-1.8h.285L21.84,2.486h1.931L20.533-1.972a2.838,2.838,0,0,0,1.68-1.023m-3.645-3.5h.563q2.181,0,2.181,1.605,0,1.714-2.243,1.714h-.5Zm11.938,0V-7.975H24.123v1.484h2.405V2.486h1.579V-6.491Zm8.084,8.977h1.728L35.323-8.632,30.146,2.486h1.7L33.012-.055h4.479ZM33.67-1.539,35.3-5.1l1.552,3.557Zm7.955-6.437V2.486h4.654V1H43.2V-7.975Z" transform="translate(2.903 8.632)" fill="#fff"/></g></g></g></svg>