<svg xmlns="http://www.w3.org/2000/svg" xmlns:xlink="http://www.w3.org/1999/xlink" width="37" height="37" viewBox="0 0 37 37">
  <defs>
    <clipPath id="clip-path">
      <path id="Path_695" data-name="Path 695" d="M0,4.353H37v-37H0Z" transform="translate(0 32.647)" fill="none"/>
    </clipPath>
    <clipPath id="clip-path-2">
      <path id="Path_697" data-name="Path 697" d="M18.5-32.647A18.5,18.5,0,0,0,0-14.146H0a18.5,18.5,0,0,0,18.5,18.5h0A18.5,18.5,0,0,0,37-14.146h0A18.5,18.5,0,0,0,18.5-32.647Z" transform="translate(0 32.647)" fill="none"/>
    </clipPath>
  </defs>
  <g id="Group_586" data-name="Group 586" transform="translate(-1809 -662)">
    <g id="Group_585" data-name="Group 585" transform="translate(1809 694.647)">
      <g id="Group_582" data-name="Group 582" transform="translate(0 -32.647)" clip-path="url(#clip-path)">
        <g id="Group_581" data-name="Group 581" transform="translate(0.001 0)">
          <path id="Path_694" data-name="Path 694" d="M2.176,4.353a18.5,18.5,0,0,0,18.5-18.5,18.5,18.5,0,0,0-18.5-18.5,18.5,18.5,0,0,0-18.5,18.5,18.5,18.5,0,0,0,18.5,18.5" transform="translate(16.323 32.647)" fill="#2b23af"/>
        </g>
      </g>
      <g id="Group_584" data-name="Group 584" transform="translate(0 -32.647)" clip-path="url(#clip-path-2)">
        <g id="Group_583" data-name="Group 583" transform="translate(-0.005 0)">
          <path id="Path_696" data-name="Path 696" d="M2.176,1.685A29.554,29.554,0,0,1,.194,3.879,27.644,27.644,0,0,1-2,5.863a27.629,27.629,0,0,1,2.2,1.982c.709.711,1.367,1.442,1.982,2.194V6.583c-.117-.117-.233-.244-.35-.36s-.254-.244-.371-.36c.117-.117.244-.245.371-.36s.233-.245.35-.372Zm18,22.677h.509V21.044A8.694,8.694,0,0,0,18.8,22.475a8.348,8.348,0,0,0-1.431,1.887h2.81Zm-35.992,0h-.509V21.044a8.748,8.748,0,0,1,1.887,1.431,8.054,8.054,0,0,1,1.43,1.887h-2.808Zm35.992-37h.509V-9.32A8.694,8.694,0,0,1,18.8-10.751a8.853,8.853,0,0,1-1.431-1.887h2.81Zm-35.992,0h-.509V-9.32a8.748,8.748,0,0,0,1.887-1.431,8.523,8.523,0,0,0,1.43-1.887h-2.808Zm18,31.456-.01-4.877a27.038,27.038,0,0,0-3.6-4.474A27.141,27.141,0,0,0-5.9,5.863,27.274,27.274,0,0,0-1.428,2.247a26.548,26.548,0,0,0,3.6-4.463l.01-4.877A24.971,24.971,0,0,1-3.051.625a24.789,24.789,0,0,1-7.718,5.237A24.578,24.578,0,0,1-3.051,11.1a24.826,24.826,0,0,1,5.237,7.718M-16.323,6.552V8.9A19.962,19.962,0,0,1-6.305,14.343,20.069,20.069,0,0,1-.855,24.362H1.487a22.229,22.229,0,0,0-6.17-11.64,22.34,22.34,0,0,0-11.64-6.17m0,4.707v2.374A15.477,15.477,0,0,1-9.559,17.6a15.354,15.354,0,0,1,3.964,6.764h2.375a17.7,17.7,0,0,0-4.708-8.386,17.712,17.712,0,0,0-8.4-4.718m0,4.782v2.449A11.01,11.01,0,0,1-12.8,20.853a10.881,10.881,0,0,1,2.354,3.509H-8a13.216,13.216,0,0,0-3.181-5.142,13.136,13.136,0,0,0-5.141-3.18m18.51-6A29.547,29.547,0,0,1,4.17,7.845,27.417,27.417,0,0,1,6.364,5.863,27.432,27.432,0,0,1,4.17,3.879,29.322,29.322,0,0,1,2.187,1.685V5.13c.117.127.233.244.35.372s.255.244.371.36c-.116.117-.244.232-.371.36s-.233.244-.35.371Zm0,8.779V13.941a26.851,26.851,0,0,1,8.078-8.078A27.219,27.219,0,0,1,5.792,2.247,26.5,26.5,0,0,1,2.187-2.216V-7.093A24.762,24.762,0,0,0,7.414.625a24.815,24.815,0,0,0,7.718,5.237A24.73,24.73,0,0,0,2.187,18.818m18.5-12.266V8.9A20.1,20.1,0,0,0,5.219,24.362H2.876A22.438,22.438,0,0,1,20.687,6.552m0,4.707v2.374A15.534,15.534,0,0,0,9.958,24.362H7.584a17.8,17.8,0,0,1,13.1-13.1m0,4.782v2.449a11,11,0,0,0-3.52,2.364,10.881,10.881,0,0,0-2.354,3.509H12.365a13.175,13.175,0,0,1,8.322-8.322m0-10.878V2.82A20.058,20.058,0,0,1,10.669-2.63,20.032,20.032,0,0,1,5.219-12.638H2.876A22.256,22.256,0,0,0,9.047-1a22.271,22.271,0,0,0,11.64,6.16m0-4.7V-1.909a15.563,15.563,0,0,1-6.764-3.966,15.413,15.413,0,0,1-3.966-6.764H7.584A17.758,17.758,0,0,0,12.29-4.251a17.809,17.809,0,0,0,8.4,4.717m0-4.782V-6.775a10.806,10.806,0,0,1-3.52-2.354,10.857,10.857,0,0,1-2.354-3.509H12.365a13.1,13.1,0,0,0,3.18,5.132,13.158,13.158,0,0,0,5.142,3.19m-37.01,9.478V2.82A20.059,20.059,0,0,0-6.305-2.63,20.034,20.034,0,0,0-.855-12.638H1.487A22.262,22.262,0,0,1-4.683-1a22.242,22.242,0,0,1-11.64,6.16m0-4.7V-1.909A15.576,15.576,0,0,0-9.559-5.874a15.411,15.411,0,0,0,3.964-6.764h2.375A17.76,17.76,0,0,1-7.927-4.251a17.805,17.805,0,0,1-8.4,4.717m0-4.782V-6.775A10.814,10.814,0,0,0-12.8-9.129a10.857,10.857,0,0,0,2.354-3.509H-8a13.1,13.1,0,0,1-3.181,5.132,13.162,13.162,0,0,1-5.141,3.19" transform="translate(16.323 12.638)" fill="#2b23af"/>
        </g>
      </g>
    </g>
    <line id="Line_6" data-name="Line 6" y2="14.35" transform="translate(1827.626 673.325)" fill="none" stroke="#fff" stroke-width="2"/>
    <line id="Line_7" data-name="Line 7" x2="13.753" transform="translate(1820.75 680.5)" fill="none" stroke="#fff" stroke-width="2"/>
  </g>
</svg>
